<svg width="26" height="26" viewBox="0 0 26 26" fill="none" xmlns="http://www.w3.org/2000/svg">
<path d="M19.342 5.14315C19.342 5.97908 20.0198 6.65672 20.8559 6.65672H23.9862C24.8222 6.65672 25.5 7.33436 25.5 8.17028V17.7312C25.5 18.5671 24.8222 19.2447 23.9862 19.2447H20.8559C20.0198 19.2447 19.342 19.9224 19.342 20.7583V23.9865C19.342 24.8224 18.6642 25.5 17.8281 25.5H8.17719C7.3411 25.5 6.66331 24.8224 6.66331 23.9865V20.8516C6.66331 20.0157 5.98552 19.338 5.14943 19.338H2.01388C1.17779 19.338 0.5 18.6604 0.5 17.8244V8.17556C0.5 7.33964 1.17779 6.662 2.01389 6.662H5.14943C5.98552 6.662 6.66331 5.98436 6.66331 5.14844V2.01355C6.66331 1.17764 7.3411 0.5 8.17719 0.5H17.8281C18.6642 0.5 19.342 1.17764 19.342 2.01356V5.14315ZM6.83935 17.6484C6.83935 18.4843 7.51714 19.162 8.35323 19.162H17.6468C18.4829 19.162 19.1607 18.4843 19.1607 17.6484V8.35156C19.1607 7.51564 18.4829 6.838 17.6468 6.838H8.35323C7.51714 6.838 6.83935 7.51564 6.83935 8.35156V17.6484Z" fill="white"/>
</svg>
